<?xml version="1.0" encoding="utf-8"?>
<!-- Generator: Adobe Illustrator 23.0.6, SVG Export Plug-In . SVG Version: 6.00 Build 0)  -->
<svg version="1.1" id="Logo" xmlns="http://www.w3.org/2000/svg" xmlns:xlink="http://www.w3.org/1999/xlink" x="0px" y="0px"
	 viewBox="0 0 1920 414" style="enable-background:new 0 0 1920 414;" xml:space="preserve">
<style type="text/css">
	.st0{fill:#5BB65A;}
	.st1{fill:#56595C;}
</style>
<g id="Full_x5F_logo">
	<g id="Diamonds">
		
			<rect x="81.8" y="68.3" transform="matrix(0.7071 0.7071 -0.7071 0.7071 102.1662 -50.2624)" class="st0" width="59.8" height="59.8"/>
		
			<rect x="81.7" y="177.4" transform="matrix(0.7071 0.7071 -0.7071 0.7071 179.2867 -18.179)" class="st1" width="59.8" height="59.8"/>
		
			<rect x="81.5" y="286.5" transform="matrix(0.7071 0.7071 -0.7071 0.7071 256.4072 13.9045)" class="st0" width="59.8" height="59.8"/>
		
			<rect x="190.9" y="68" transform="matrix(0.7071 0.7071 -0.7071 0.7071 133.9037 -127.4803)" class="st1" width="59.8" height="59.8"/>
		
			<rect x="136.3" y="122.6" transform="matrix(0.7071 0.7071 -0.7071 0.7071 156.541 -72.8291)" class="st0" width="59.8" height="59.8"/>
		
			<rect x="190.7" y="177.1" transform="matrix(0.7071 0.7071 -0.7071 0.7071 211.0242 -95.3968)" class="st0" width="59.8" height="59.8"/>
		
			<rect x="136.1" y="231.8" transform="matrix(0.7071 0.7071 -0.7071 0.7071 233.6615 -40.7457)" class="st0" width="59.8" height="59.8"/>
		
			<rect x="190.6" y="286.2" transform="matrix(0.7071 0.7071 -0.7071 0.7071 288.1447 -63.3134)" class="st1" width="59.8" height="59.8"/>
	</g>
	<g id="_x31_904labs">
		<path class="st1" d="M300.7,127.3V83l49.6-28.3h46.1v304h-42.5V96.1L300.7,127.3z"/>
		<path class="st1" d="M429.1,156.6c0-28.1,8.8-52.1,26.3-72.2c17.5-20.1,43.2-30.1,76.9-30.1c68.7,0,103,46.7,103,140.2
			c0,20.5-1.9,39.1-5.6,55.9c-3.7,16.8-8.5,30.7-14.3,41.8c-5.8,11-12.9,20.8-21.1,29.3c-8.2,8.5-16.4,15-24.4,19.6
			c-8,4.6-16.7,8.3-26.1,11.1c-9.4,2.8-17.6,4.7-24.5,5.6c-6.9,0.9-13.8,1.3-20.6,1.3c-15.4,0-30.8-2.2-46-6.5v-37.5
			c12.4,3.5,25.2,5.2,38.4,5.2c0.4,0,0.9,0,1.5,0c26.1,0,47.6-7.3,64.3-21.8c16.8-14.5,28-35.3,33.6-62.4
			c-16.1,10.3-36.8,15.5-62,15.5c-34.9,0-60.3-9.3-76-27.8C437,205.3,429.1,182.9,429.1,156.6z M470.8,156.6
			c0,38.4,20.5,57.6,61.6,57.6c25.5,0,46-7.3,61.4-22c-0.3-19-2.1-35.3-5.3-48.8s-6.9-23.5-10.9-30.1c-4-6.5-9.3-11.5-15.8-14.9
			c-6.5-3.4-11.6-5.3-15.3-5.8s-8.4-0.7-14-0.7c-13.1,0-24.1,2.4-33,7.1c-8.9,4.7-15.2,10.9-18.9,18.5c-3.7,7.6-6.2,14.5-7.6,20.6
			C471.5,144.1,470.8,150.3,470.8,156.6z"/>
		<path class="st1" d="M668.1,206.3c0-24.1,2.5-45.4,7.4-64c4.9-18.6,11.2-33.3,18.7-44.1c7.5-10.8,16.7-19.7,27.4-26.6
			c10.7-6.9,21.3-11.5,31.7-13.8c10.4-2.3,21.5-3.5,33.4-3.5c15.1,0,29,2.1,41.6,6.4c12.6,4.3,25,11.6,37.2,22
			c12.2,10.4,21.8,26.1,28.9,47c7,21,10.6,46.5,10.6,76.6c0,24.4-2.5,45.8-7.4,64.3c-4.9,18.4-11.2,33.1-18.7,44.1
			c-7.6,11-16.7,19.9-27.4,26.8c-10.7,6.9-21.2,11.5-31.5,13.8c-10.2,2.3-21.3,3.5-33.2,3.5c-11.9,0-23.1-1.2-33.4-3.5
			c-10.4-2.3-20.9-6.9-31.7-13.8c-10.7-6.9-19.9-15.8-27.4-26.8c-7.6-11-13.8-25.7-18.7-44.1C670.6,252.2,668.1,230.7,668.1,206.3z
			 M714.4,155.5c-3.1,14.3-4.7,31.3-4.7,50.9s1.6,36.6,4.7,51.1c3.1,14.5,7,25.7,11.8,33.7c4.7,8,10.7,14.4,18,19.2
			c7.3,4.8,14.1,7.8,20.6,9.1c6.5,1.3,13.8,2,22.1,2c8,0,15.2-0.7,21.8-2c6.5-1.3,13.4-4.4,20.6-9.1c7.2-4.8,13.1-11.2,17.9-19.2
			c4.7-8,8.6-19.2,11.8-33.7c3.1-14.4,4.7-31.5,4.7-51.1s-1.6-36.6-4.7-50.9c-3.1-14.3-7-25.4-11.8-33.4c-4.7-8-10.7-14.4-17.9-19.2
			c-7.2-4.8-14-7.8-20.6-9.1c-6.5-1.3-13.8-2-21.8-2c-8.3,0-15.6,0.7-22.1,2c-6.5,1.3-13.3,4.4-20.6,9.1c-7.3,4.8-13.3,11.2-18,19.2
			C721.4,130,717.5,141.2,714.4,155.5z"/>
		<path class="st1" d="M937.8,262.6v-37.4l133.6-170.5h47.4v170.5h43.2v37.4h-43.2v96.2h-42.5v-96.2H937.8z M987.9,225.2h88.4v-110
			L987.9,225.2z"/>
		<path class="st1" d="M1194.6,359.7V54.4h40v305.3H1194.6z"/>
		<path class="st1" d="M1267.3,286.5c0-21.5,9.1-38.4,27.3-50.5c18.2-12.1,43.3-18.2,75.3-18.2c13.6,0,26.8,0.9,39.6,2.6
			c-0.9-18.3-5.9-31.5-15-39.4c-9.1-8-24.1-11.9-45-11.9c-18.9,0-39,3.6-60.3,10.9v-34.1c20.6-7.8,42.6-11.7,65.9-11.7
			c30.4,0,53.8,7.9,70.4,23.6c16.5,15.7,24.8,38.3,24.8,67.7v62.9c0,4.7-0.5,9.3-1.4,14c-0.9,4.6-3.1,10.6-6.6,17.8
			c-3.5,7.2-8.2,13.6-14.2,19c-6,5.4-15,10.1-27,14c-12,3.9-25.8,5.9-41.5,5.9c-16.1,0-30.2-2-42.3-6.1
			c-12.1-4.1-21.2-8.8-27.3-14.2c-6.1-5.4-11-11.8-14.6-19.2c-3.6-7.4-5.9-13.5-6.7-18.4C1267.8,295.9,1267.3,291.2,1267.3,286.5z
			 M1307.2,286c0,24.6,17.4,36.9,52.3,36.9c0.1,0,0.4,0,0.6,0c32.9,0,49.4-11.8,49.4-35.4v-35.2c-10.5-1.7-23.1-2.6-37.9-2.8
			c-5.8,0-11.9,0.5-18.3,1.6c-6.4,1.1-13.3,2.7-20.6,5c-7.4,2.3-13.5,6-18.3,11.2C1309.6,272.6,1307.2,278.8,1307.2,286z"/>
		<path class="st1" d="M1482.9,288.1V54.4h39.9v86c15-4.3,30.6-6.5,46.6-6.5c12.5,0,24.1,1.5,34.9,4.6c10.8,3.1,21.3,8.4,31.7,15.9
			s18.5,18.9,24.3,34c5.9,15.2,8.8,33.5,8.8,55.2c0,19.2-2.2,36-6.7,50.4c-4.5,14.4-10,25.6-16.5,33.6c-6.5,8-14.4,14.4-23.5,19.4
			c-9.1,5-17.6,8.2-25.3,9.6c-7.7,1.4-15.8,2.1-24.1,2.1c-15.8,0-29.6-2-41.4-5.9c-11.8-3.9-20.7-8.6-26.7-14
			c-6-5.4-10.7-11.7-14.2-19c-3.5-7.2-5.7-13.2-6.5-17.9C1483.4,297.3,1482.9,292.7,1482.9,288.1z M1522.8,290.4
			c0,21.6,16.7,32.5,50.2,32.5c7.5,0,14.2-0.9,20-2.8c5.8-1.8,11.7-5.3,17.7-10.4c6-5.1,10.5-13.2,13.7-24.4
			c3.2-11.2,4.8-25.1,4.8-41.8c0-15.7-1.6-28.7-4.8-38.9c-3.2-10.3-7.8-17.8-13.7-22.6s-12.1-8.1-18.5-9.8c-6.4-1.7-14-2.5-22.8-2.5
			c-16.3,0-31.9,3-46.6,9.1V290.4z"/>
		<path class="st1" d="M1701.9,200.7c0-17.8,6.3-32.9,19-45.4c12.7-12.5,32.1-18.7,58.2-18.7c19.5,0,38.6,4.7,57.5,14.1v34.1
			c-18.6-8.5-36.2-12.8-52.7-12.8c-28.5,0-42.7,9.2-42.7,27.5c0,6,3.8,11,11.4,15c7.6,4,16.7,7.5,27.4,10.5c10.7,3,21.3,6.6,32,10.9
			c10.7,4.3,19.9,11.4,27.5,21.5c7.6,10.1,11.4,22.5,11.4,37.4c0,17.3-6.5,32.3-19.5,44.9c-13,12.6-33.2,18.8-60.5,18.8
			c-23,0-43.7-5-62.1-15.1v-36c18.7,10.5,38.5,15.7,59.6,15.7c0.3,0,0.6,0,0.8,0c13.7,0,24.2-2.5,31.5-7.4c7.2-5,10.8-11.3,10.8-19
			c0-8.8-3.8-15.9-11.3-21.3c-7.5-5.4-16.7-9.6-27.5-12.6c-10.8-3-21.6-6.4-32.3-10.1c-10.7-3.7-19.9-9.9-27.4-18.5
			C1705.6,225.6,1701.9,214.4,1701.9,200.7z"/>
	</g>
</g>
</svg>
